<?xml version="1.0" encoding="UTF-8"?>
<svg id="Layer_1" xmlns="http://www.w3.org/2000/svg" version="1.1" viewBox="0 0 72 72">
  <!-- Generator: Adobe Illustrator 30.3.0, SVG Export Plug-In . SVG Version: 2.1.3 Build 182)  -->
  <defs>
    <style>
      .st0 {
        fill: #231f20;
      }

      .st1 {
        fill: #fff;
      }

      .st2 {
        fill: #f1f2f2;
        stroke: #231f20;
        stroke-miterlimit: 10;
      }

      .st3 {
        fill: #d1d3d4;
      }
    </style>
  </defs>
  <path class="st2" d="M36.38,57.53c-4.77.08-9.35,0-13.71-.21-4.88-.23-9.5-.6-13.82-1.07l1.33,5.11c7.89,1.12,16.67,1.86,26.19,1.86,7.94,0,16.72-.51,26.19-1.86l1.33-5.11c-8.18.89-17.42,1.44-27.53,1.28Z"/>
  <g>
    <path class="st1" d="M36.14,58.59c-.15,0-14.98-.02-28.25-1.42-.84-.09-1.51-.38-1.98-.88-.53-.57-.83-1.32-.83-2.11-.99-6.69-1.5-13.59-1.54-20.42-.04-7.31.48-14.68,1.54-21.91.12-.62.39-1.11.79-1.45.05-.04.09-.07.14-.11.44-.32.99-.52,1.6-.58,14.01-1.4,28.11-1.42,28.25-1.42.15,0,14.97.02,28.25,1.42.84.09,1.51.39,1.98.89.53.57.83,1.31.83,2.11.99,6.68,1.5,13.58,1.54,20.42.04,7.31-.48,14.69-1.54,21.91-.04.28-.13.54-.27.79-.13.25-.31.46-.51.65-.48.39-1.08.63-1.75.69-14.01,1.4-28.11,1.42-28.25,1.42ZM13.17,16.95c-.29.3-.3.46-.3.46-.84,5.42-1.24,10.86-1.21,16.26.03,5.05.43,10.15,1.21,15.14,0,.44.15.78.4,1.04.22.22.56.36,1.01.4,10.43,1.04,22.09,1.05,22.2,1.05s11.2-.01,22.21-1.05c.36-.03.67-.15.9-.32.29-.3.29-.45.29-.46.83-5.42,1.24-10.86,1.21-16.26-.03-5.05-.43-10.14-1.21-15.14,0-.44-.15-.78-.4-1.04-.22-.22-.56-.36-1.01-.4-10.43-1.04-22.09-1.05-22.21-1.05s-11.2.01-22.21,1.05c-.35.03-.66.14-.89.32Z"/>
    <path class="st0" d="M35.86,8.79s14.8,0,28.2,1.41c.32.03,1.11.14,1.67.73.43.45.69,1.08.69,1.77.86,5.88,1.5,12.75,1.54,20.43.04,8.26-.63,15.62-1.54,21.84-.02.15-.08.38-.21.63-.13.25-.29.41-.41.51-.54.44-1.18.54-1.46.57-14.14,1.41-28.2,1.41-28.2,1.41,0,0-14.8,0-28.2-1.41-.32-.03-1.11-.14-1.67-.73-.43-.45-.69-1.08-.69-1.77-.86-5.88-1.5-12.75-1.54-20.42-.04-8.26.63-15.62,1.54-21.84.06-.34.22-.81.62-1.14.03-.03.07-.06.11-.08-.04.03-.07.05-.11.08.04-.03.07-.05.11-.08,0,0,0,0,0,0,.52-.38,1.1-.46,1.36-.49,14.14-1.41,28.2-1.41,28.2-1.41M12.86,16.56h0c-.47.48-.48.77-.48.85-.72,4.63-1.25,10.11-1.21,16.27.03,5.72.53,10.84,1.21,15.21,0,.51.21.98.55,1.32.44.44,1.06.52,1.32.55,10.58,1.05,22.25,1.05,22.25,1.05,0,0,11.09,0,22.25-1.05.22-.02.73-.09,1.16-.42h0c.47-.48.48-.77.48-.85.72-4.63,1.25-10.11,1.21-16.27-.03-5.72-.53-10.84-1.21-15.21,0-.51-.21-.98-.55-1.32-.44-.44-1.06-.52-1.32-.55-10.58-1.05-22.25-1.05-22.25-1.05,0,0-11.09,0-22.25,1.05-.22.02-.73.09-1.16.42M35.86,7.79c-.14,0-14.27.02-28.3,1.42-.69.07-1.33.3-1.84.67-.06.04-.11.08-.17.13-.49.41-.82,1.01-.96,1.72-1.07,7.29-1.59,14.69-1.56,22.03.03,6.84.55,13.74,1.54,20.5.02.89.36,1.74.96,2.37.56.59,1.33.94,2.29,1.04,13.3,1.4,28.16,1.42,28.31,1.42s14.27-.02,28.3-1.42c.77-.08,1.46-.35,2-.79.28-.25.49-.52.65-.81.16-.3.27-.62.32-.95,1.06-7.26,1.59-14.66,1.55-21.99-.03-6.84-.55-13.74-1.54-20.5-.02-.89-.36-1.74-.96-2.37-.56-.59-1.33-.94-2.29-1.04-13.3-1.4-28.16-1.42-28.31-1.42h0ZM13.5,17.32c.15-.1.36-.17.61-.2,10.99-1.04,22.05-1.05,22.16-1.05.12,0,11.75.01,22.16,1.05.33.03.57.12.71.26.16.16.25.38.25.61v.15c.78,4.97,1.19,10.04,1.21,15.06.03,5.37-.38,10.79-1.2,16.11v.06s-.07.09-.14.17c-.15.1-.36.17-.61.2-10.99,1.04-22.05,1.05-22.16,1.05-.12,0-11.75-.01-22.16-1.05-.33-.03-.57-.12-.71-.26-.16-.16-.25-.38-.25-.61v-.15c-.78-4.97-1.19-10.04-1.21-15.06-.03-5.37.38-10.79,1.2-16.11v-.06s.07-.09.14-.17h0Z"/>
  </g>
  <g>
    <path class="st3" d="M36.5,52.9c-.13,0-12.92-.01-24.36-1.14-.54-.05-.94-.22-1.22-.48-.31-.31-.49-.72-.49-1.15-.86-5.46-1.3-10.97-1.33-16.44-.03-5.84.42-11.74,1.33-17.51,0-.17.11-.39.39-.68h0c.35-.27.78-.36,1.07-.38,12.08-1.12,24.24-1.14,24.36-1.14.13,0,12.92.01,24.36,1.14.54.05.94.22,1.22.48.31.31.49.72.49,1.16.86,5.47,1.3,10.98,1.33,16.44.03,5.84-.42,11.73-1.33,17.52,0,.17-.11.39-.39.68h0c-.35.27-.78.36-1.08.38-12.08,1.12-24.24,1.14-24.37,1.14ZM13.66,17.29c-.38.38-.57.74-.57,1.07-.79,5.01-1.19,10.18-1.16,15.3.02,4.79.42,9.63,1.16,14.37,0,.51.22,1.05.63,1.45.35.35.85.56,1.48.62,10,.98,21.17.99,21.28.99.11,0,10.73-.01,21.28-.99.5-.05.95-.21,1.29-.47l-.39.04.44-.07c.38-.38.57-.74.57-1.07.79-5.01,1.18-10.17,1.16-15.3-.02-4.79-.42-9.62-1.16-14.37,0-.51-.22-1.04-.63-1.45-.35-.35-.85-.56-1.48-.62-10-.98-21.17-.99-21.28-.99-.11,0-10.73.01-21.28.99-.5.05-.95.21-1.3.47h.45s-.49.03-.49.03Z"/>
    <path class="st3" d="M36.26,14.35c.13,0,12.9.01,24.33,1.13.45.04.78.17.99.38.24.24.37.55.37.89v.12c.86,5.39,1.3,10.88,1.33,16.32.03,5.82-.41,11.7-1.32,17.45v.09s-.04.13-.26.36c-.22.16-.52.26-.87.3-12.06,1.12-24.21,1.13-24.33,1.13-.13,0-12.9-.01-24.33-1.13-.45-.04-.78-.17-.99-.38-.24-.24-.37-.55-.37-.89v-.12c-.86-5.39-1.3-10.88-1.33-16.32-.03-5.82.41-11.7,1.32-17.45v-.09s.04-.13.26-.36c.22-.16.52-.26.87-.3,12.06-1.12,24.21-1.13,24.33-1.13M13.51,17.01h-.12c-.43.44-.66.86-.68,1.27-.8,5.07-1.19,10.25-1.16,15.38.02,4.79.42,9.63,1.16,14.37.02.65.28,1.25.74,1.71.42.41.99.65,1.71.73,10.02.98,21.2.99,21.32.99s10.75-.01,21.31-.99c.57-.05,1.09-.24,1.49-.55l-.04-.05h.12c.43-.44.66-.86.68-1.27.8-5.07,1.19-10.25,1.16-15.38-.02-4.79-.42-9.63-1.16-14.37-.02-.65-.28-1.25-.74-1.71-.42-.41-.99-.65-1.71-.72-10.02-.98-21.2-.99-21.32-.99s-10.75.01-21.31.99c-.57.05-1.09.24-1.49.55l.04.05M60.04,48.52h0,0M36.26,13.6s-12.16,0-24.4,1.14c-.24.02-.8.1-1.27.46h0c-.52.51-.53.83-.53.92-.79,5-1.37,10.92-1.33,17.58.03,6.18.59,11.71,1.33,16.44,0,.56.23,1.06.6,1.42.48.48,1.17.56,1.44.59,11.6,1.14,24.4,1.14,24.4,1.14,0,0,12.16,0,24.4-1.14.24-.02.8-.1,1.27-.46h0c.52-.51.53-.83.53-.92.79-5,1.37-10.92,1.33-17.58-.03-6.18-.59-11.71-1.33-16.44,0-.56-.23-1.06-.6-1.42-.48-.48-1.17-.56-1.44-.59-11.6-1.14-24.4-1.14-24.4-1.14h0ZM13.93,17.56c.41-.31.89-.38,1.1-.4,10.65-.99,21.24-.99,21.24-.99,0,0,11.14,0,21.24.99.24.02.84.1,1.26.51.32.32.52.75.52,1.24.65,4.12,1.13,8.93,1.16,14.31.03,5.79-.47,10.95-1.16,15.3,0,.07,0,.35-.46.8h0c-.41.31-.89.38-1.1.4-10.65.99-21.24.99-21.24.99,0,0-11.14,0-21.24-.99-.24-.02-.84-.1-1.26-.51-.32-.32-.52-.75-.52-1.24-.65-4.12-1.13-8.93-1.16-14.31-.03-5.79.47-10.95,1.16-15.3,0-.07,0-.35.46-.8h0Z"/>
  </g>
</svg>