<?xml version="1.0" encoding="UTF-8"?>
<svg id="Layer_1" data-name="Layer 1" xmlns="http://www.w3.org/2000/svg" viewBox="0 0 276.95 323.83">
  <defs>
    <style>
      .cls-1 {
        fill: #231f20;
      }

      .cls-2 {
        fill: #3fc6ec;
      }

      .cls-2, .cls-3, .cls-4, .cls-5 {
        stroke: #231f20;
        stroke-miterlimit: 10;
      }

      .cls-2, .cls-5 {
        stroke-width: 6px;
      }

      .cls-6 {
        opacity: .32;
      }

      .cls-6, .cls-3 {
        fill: #fff;
      }

      .cls-3 {
        stroke-width: 3px;
      }

      .cls-4 {
        stroke-width: 2px;
      }

      .cls-4, .cls-5 {
        fill: none;
      }

      .cls-7 {
        fill: #2a3990;
        opacity: .18;
      }
    </style>
  </defs>
  <path class="cls-2" d="M261.28,131.38c-1.37-11.71-1.76-16.9-4.13-25.44-3.77-13.58-9.33-24.01-13.53-30.81-3.7-8.24-9.94-19.78-20.28-31.52-13.46-15.3-27.06-23.23-30.1-24.95-20.96-11.92-41.24-14.21-53.09-14.52h0c-24.06,3.29-40.72,11.08-51.51,17.63C51.09,44.55,24.47,88.67,24.46,88.69c-6.19,17.35-9.7,31.81-11.74,41.6-7.91,37.91-8.84,77.85-8.84,77.85,5.08,14.62,18.16,45.76,49.4,72.03,23.78,20,47.96,28.65,62.23,32.55,6.6,2.58,15.95,5.45,27.43,6.54,10.76,1.02,19.92.16,26.65-.99,14.56-3.85,46.02-14.37,72.65-43.44,14.97-16.35,23.39-33.07,28.14-44.98.51-13.31.16-24.18-.25-31.59-1.35-24.6-4.2-27.18-8.85-66.86Z"/>
  <path class="cls-7" d="M9.06,226.2c14.71,12.48,38.62,29.27,71.76,39.31,40.92,12.4,74.74,8.11,92.03,5.73,33.27-4.58,59.32-15.43,76.41-24.23h0c-7.5,24.44-7.71,24.98-7.71,24.98-8.64,21.54-33.48,31.61-48.72,37.78-7.43,3.01-25.73,10.21-49.89,9.49-50.26-1.5-85.18-36.02-101.92-52.58-15.77-15.6-26.01-30.7-31.95-40.48Z"/>
  <path class="cls-6" d="M47.35,57.98c16.18,6.33,37.61,12.74,63.32,15.38,13.87,1.43,26.53,1.51,37.61.91-.26-5.9-.55-12.49-.57-12.49-.04,0,1.04,21.52,1.55,44.38.76,34.24,1.15,51.37-.1,62.95-2.34,21.74-.38,43.82-3.07,65.51-.21,1.69-.78,5.97,1.72,8.97,2.52,3.02,5.87,2.01,15.3,4.62,6.68,1.85,9.56,3.61,10.3,2.61,1.48-1.99-8.42-10.86-7.28-12.24.87-1.05,6.88,3.68,14.77,6.65,8.3,3.13,16.15,3.35,22.08,2.86,11.05-1.52,19.45-4.37,25.2-6.78,9.28-3.89,13.84-4.51,21.35-6.3,10.92-2.61,16.38-3.91,17.95-2.11,5.75,6.61-26.35,41-25.26,41.92.77.65,19.47-14.47,27.35-41,2.97-10,3-18.01-4.09-70.87-3.17-23.6-4.75-35.4-5.27-37.81-4.61-21.33-12.73-60.22-43.42-89.28-7.96-7.53-32.22-30.53-68.5-32.93C88.61-1,49.83,54.32,47.35,57.98Z"/>
  <circle class="cls-3" cx="78.21" cy="181.27" r="37.42"/>
  <path class="cls-1" d="M43.89,228.27c-6.71-2.11-13.41-4.22-20.12-6.33,8,6.8,20.24,15.9,36.76,23.52,20.86,9.62,38.34,12.18,55.02,14.62,24.23,3.55,42.64,2.79,56.07,2.17,18.32-.85,30.35-1.5,45.45-6.87,15.21-5.41,32.47-20.36,32.47-20.36-43.98.66-57.03-.24-57.03-.24-15.48-1.07-35.05-3.44-35.05-3.44,0,0-3.57-2.29-10.71-6.86-3.57,6.11-7.53,8.84-10.69,10.17-6.68,3.35-15.52,2.37-15.52,2.37,0,0,0,0-.03,0-.02,0-15.9,2.21-25.29,2.07-4.78-.07-11.71-.8-20.24-3.98"/>
  <path class="cls-4" d="M143.67,3.38c1.89,21.28,3.37,43.09,4.38,65.44,2.56,56.85,1.76,110.97-1.41,161.99"/>
  <path class="cls-4" d="M167.91,260.63c.56.57,1.37,1.46,2.13,2.7,0,0,.45.73.82,1.52,3.76,8.02,2.71,19.71,2.71,19.71-.81,9.1-2.01,20.48-3.99,33.7"/>
  <circle class="cls-7" cx="232.87" cy="186.27" r="37.42"/>
  <path class="cls-1" d="M55.02,175.44c-.83.53-1.93,1.35-2.93,2.61-2.69,3.36-4.07,8.96-1.56,13.84,2.23,4.35,7.56,8.14,12.97,6.65,4.46-1.23,7.14-5.55,7.66-9.22.32-2.2-.17-3.96-.46-4.97-.29-.99-1.65-5.32-6.08-7.95-2.69-1.6-5.3-1.86-6.69-1.89"/>
  <path class="cls-5" d="M261.28,131.38c-1.37-11.71-1.76-16.9-4.13-25.44-3.77-13.58-9.33-24.01-13.53-30.81-3.7-8.24-9.94-19.78-20.28-31.52-13.46-15.3-27.06-23.23-30.1-24.95-20.96-11.92-41.24-14.21-53.09-14.52h0c-24.06,3.29-40.72,11.08-51.51,17.63C51.09,44.55,24.47,88.67,24.46,88.69c-6.19,17.35-9.7,31.81-11.74,41.6-7.91,37.91-8.84,77.85-8.84,77.85,5.08,14.62,18.16,45.76,49.4,72.03,23.78,20,47.96,28.65,62.23,32.55,6.6,2.58,15.95,5.45,27.43,6.54,10.76,1.02,19.92.16,26.65-.99,14.56-3.85,46.02-14.37,72.65-43.44,14.97-16.35,23.39-33.07,28.14-44.98.51-13.31.16-24.18-.25-31.59-1.35-24.6-4.2-27.18-8.85-66.86Z"/>
  <circle class="cls-3" cx="237.37" cy="182.63" r="37.42"/>
  <path class="cls-1" d="M244.59,179.81c-1.64.91-2.74,2.59-3.7,4.05-.47.71-.92,1.51-1.44,2.68-1.05,2.34-2.46,5.47-2.37,7.82.18,4.72,6.58,10.51,12.58,9.61,7.25-1.09,10.75-11.49,8.38-17.72-1.19-3.13-3.73-4.87-4.24-5.2-2.18-1.43-6.17-2.92-9.21-1.24Z"/>
</svg>